<svg width="25" height="25" viewBox="0 0 25 25" fill="none" xmlns="http://www.w3.org/2000/svg">
<path d="M23.5769 2.27273V1.77273H23.0769H1.92308H1.42308V2.27273V4.54545V5.04545H1.92308H23.0769H23.5769V4.54545V2.27273ZM23.0769 23.2273H23.5769V22.7273V6.81818V6.31818H23.0769H1.92308H1.42308V6.81818V22.7273V23.2273H1.92308H23.0769ZM1.92308 0.5H23.0769C23.4248 0.5 23.7792 0.662669 24.055 0.988637C24.333 1.31713 24.5 1.77808 24.5 2.27273V22.7273C24.5 23.2219 24.333 23.6829 24.055 24.0114C23.7792 24.3373 23.4248 24.5 23.0769 24.5H1.92308C1.57518 24.5 1.22077 24.3373 0.94495 24.0114C0.666998 23.6829 0.5 23.2219 0.5 22.7273V2.27273C0.5 1.77808 0.666998 1.31713 0.944949 0.988637C1.22077 0.662669 1.57518 0.5 1.92308 0.5ZM17.7692 10.2273C17.7692 11.9275 17.197 13.5446 16.1978 14.7255C15.2007 15.9039 13.868 16.5455 12.5 16.5455C11.132 16.5455 9.79935 15.9039 8.80223 14.7255C7.80299 13.5446 7.23077 11.9275 7.23077 10.2273C7.23077 10.034 7.29646 9.86209 7.39409 9.74671C7.48959 9.63385 7.59942 9.59091 7.69231 9.59091C7.78519 9.59091 7.89503 9.63385 7.99052 9.74671C8.08815 9.86209 8.15385 10.034 8.15385 10.2273C8.15385 11.5409 8.59468 12.8142 9.39866 13.7644C10.2048 14.7171 11.3178 15.2727 12.5 15.2727C13.6822 15.2727 14.7952 14.7171 15.6013 13.7644C16.4053 12.8142 16.8462 11.5409 16.8462 10.2273C16.8462 10.034 16.9118 9.86209 17.0095 9.74671C17.105 9.63385 17.2148 9.59091 17.3077 9.59091C17.4006 9.59091 17.5104 9.63385 17.6059 9.74671C17.7035 9.86209 17.7692 10.034 17.7692 10.2273Z" stroke="black"/>
</svg>
