<svg width="80" height="80" viewBox="0 0 90 90" fill="none" xmlns="http://www.w3.org/2000/svg">
<path d="M12.2867 67.4414L11.5762 68.145L12.2867 67.4413C4.94179 60.0238 0.935072 50.194 1.0008 39.7543C1.13578 18.3407 18.7297 1.00169 40.1206 1C51.9684 1.07524 63.1175 6.43104 70.4974 15.6894L70.4975 15.6896C70.8996 16.1938 70.8275 16.9513 70.3614 17.3605L71.0212 18.112L70.3614 17.3605C69.9245 17.7441 69.2811 17.6939 68.9015 17.2177C61.918 8.45639 51.3495 3.39469 40.1177 3.32436H40.1115C19.8907 3.32436 3.24796 19.6141 3.12104 39.7702C3.05951 49.5449 6.82643 58.7683 13.7225 65.7327C19.9116 71.9832 27.9617 75.753 36.6491 76.5271L37.7378 76.6241V75.531V40.2375C37.7378 39.5496 38.2575 39.0754 38.7979 39.0754H77.9399C78.2061 39.0754 78.4717 39.1863 78.6754 39.4014C78.8801 39.6179 79.0021 39.921 79 40.2456C78.8653 61.6592 61.271 78.9965 39.8798 79C29.4778 78.9338 19.6006 74.8278 12.2867 67.4414ZM39.858 75.6661V76.6898L40.8814 76.6659C59.9546 76.2203 75.534 61.2858 76.7977 42.4667L76.8694 41.3997H75.7999H40.858H39.858V42.3997V57.1746V58.1746H40.858H59.0556C59.596 58.1746 60.1157 58.6489 60.1157 59.3368C60.1157 60.0247 59.596 60.499 59.0556 60.499H40.858H39.858V61.499V75.6661Z" stroke="#001219" stroke-width="3"/>
</svg>
